<?xml version="1.0" encoding="UTF-8" standalone="no"?>
<!-- Generator: Adobe Illustrator 19.0.1, SVG Export Plug-In . SVG Version: 6.00 Build 0)  -->

<svg
   xmlns:dc="http://purl.org/dc/elements/1.1/"
   xmlns:cc="http://creativecommons.org/ns#"
   xmlns:rdf="http://www.w3.org/1999/02/22-rdf-syntax-ns#"
   xmlns:svg="http://www.w3.org/2000/svg"
   xmlns="http://www.w3.org/2000/svg"
   xmlns:sodipodi="http://sodipodi.sourceforge.net/DTD/sodipodi-0.dtd"
   xmlns:inkscape="http://www.inkscape.org/namespaces/inkscape"
   version="1.1"
   id="Rus"
   x="0px"
   y="0px"
   viewBox="0 0 300.00001 57"
   xml:space="preserve"
   sodipodi:docname="Logo.svg"
   width="300"
   height="57"
   inkscape:version="0.92.1 r15371"><metadata
   id="metadata121"><rdf:RDF><cc:Work
       rdf:about=""><dc:format>image/svg+xml</dc:format><dc:type
         rdf:resource="http://purl.org/dc/dcmitype/StillImage" /><dc:title></dc:title></cc:Work></rdf:RDF></metadata><defs
   id="defs119" /><sodipodi:namedview
   pagecolor="#ffffff"
   bordercolor="#666666"
   borderopacity="1"
   objecttolerance="10"
   gridtolerance="10"
   guidetolerance="10"
   inkscape:pageopacity="0"
   inkscape:pageshadow="2"
   inkscape:window-width="1440"
   inkscape:window-height="838"
   id="namedview117"
   showgrid="false"
   inkscape:zoom="0.67025031"
   inkscape:cx="297.64999"
   inkscape:cy="28.5"
   inkscape:window-x="-8"
   inkscape:window-y="-8"
   inkscape:window-maximized="1"
   inkscape:current-layer="Rus" />
<style
   type="text/css"
   id="style2">
	.st0{fill:#F47B20;}
	.st1{fill:#61116A;}
</style>
<g
   id="g114"
   transform="translate(-144.72205,1.4919799)">
	<g
   id="g34">
		<path
   class="st0"
   d="M 223.4,28 H 219 l 3.1,-17.6 h -4.4 l 0.4,-2.1 h 13.2 l -0.4,2.1 h -4.4 z"
   id="path4"
   inkscape:connector-curvature="0"
   style="fill:#f47b20" />
		<path
   class="st0"
   d="m 227.1,32.4 3.5,-19.7 h 4.4 l -0.4,2.1 c 0.1,-0.6 0.4,-1.2 0.8,-1.6 0.4,-0.4 1,-0.6 1.8,-0.6 h 2.2 c 1.2,0 2.1,0.4 2.8,1.2 0.7,0.8 0.9,1.9 0.7,3.1 l -1.2,6.6 c -0.2,1.2 -0.8,2.3 -1.8,3.1 -1,0.9 -2.1,1.3 -3.3,1.3 h -4.4 l -0.8,4.4 h -4.3 z m 7.1,-15.4 -1.6,8.8 h 2.2 c 0.5,0 1.1,-0.2 1.7,-0.7 0.5,-0.5 0.8,-1 0.9,-1.6 l 1.2,-6.6 c 0.1,-0.5 0,-1 -0.4,-1.5 -0.3,-0.4 -0.8,-0.6 -1.5,-0.7 -0.6,0 -1.1,0.2 -1.6,0.7 -0.5,0.5 -0.8,1 -0.9,1.6 z"
   id="path6"
   inkscape:connector-curvature="0"
   style="fill:#f47b20" />
		<path
   class="st0"
   d="m 253.2,19.2 0.4,-2.2 c 0.1,-0.5 0,-1 -0.4,-1.5 -0.4,-0.5 -0.8,-0.7 -1.4,-0.7 H 250 c -1.2,0 -2.1,0.7 -2.6,2.2 h -2.3 c 0.9,-2.9 2.6,-4.3 5.2,-4.3 h 4 c 1.2,0 2.1,0.4 2.8,1.2 0.7,0.8 0.9,1.9 0.7,3.1 L 256,28 h -4.3 l 0.4,-2.2 c -0.4,1.4 -1.3,2.2 -2.6,2.2 h -2.2 c -1.1,0 -2.1,-0.4 -2.8,-1.3 -0.7,-0.9 -1,-1.9 -0.8,-3.1 0.2,-1.2 0.8,-2.2 1.9,-3.1 1,-0.9 2.1,-1.3 3.3,-1.3 z m -0.4,2.2 h -2.2 c -0.5,0 -1.1,0.2 -1.7,0.6 -0.2,0.2 -0.4,0.5 -0.6,0.7 -0.2,0.3 -0.3,0.5 -0.3,0.9 -0.1,0.6 0,1.1 0.3,1.6 0.4,0.4 0.9,0.7 1.4,0.7 0.6,0 1.1,-0.2 1.7,-0.7 0.5,-0.5 0.8,-1 0.9,-1.6 z"
   id="path8"
   inkscape:connector-curvature="0"
   style="fill:#f47b20" />
		<path
   class="st0"
   d="m 263.6,21 -1.2,7 H 258 l 2.7,-15.3 h 4.4 l -1.1,6.1 h 4.4 l 1.1,-6.1 h 4.3 L 271.1,28 h -4.3 l 1.2,-7 z"
   id="path10"
   inkscape:connector-curvature="0"
   style="fill:#f47b20" />
		<path
   class="st0"
   d="m 282.4,12.7 c 2.7,0 3.9,1.4 3.7,4.3 h -2.2 c 0.1,-1.5 -0.5,-2.2 -1.8,-2.2 -0.6,0 -1.1,0.2 -1.6,0.7 -0.5,0.4 -0.8,0.9 -0.9,1.5 l -1.2,6.6 c -0.1,0.6 0,1.1 0.3,1.6 0.4,0.4 0.9,0.6 1.4,0.6 1.3,0 2.2,-0.7 2.6,-2.2 h 2.2 c -0.3,1.4 -0.8,2.5 -1.7,3.3 -0.9,0.7 -2.1,1.1 -3.5,1.1 h -2.2 c -1.1,0 -2.1,-0.4 -2.8,-1.3 -0.8,-0.9 -1,-1.9 -0.8,-3.1 L 275,17 c 0.2,-1.1 0.8,-2.1 1.8,-3 1,-0.9 2.1,-1.3 3.3,-1.3 z"
   id="path12"
   inkscape:connector-curvature="0"
   style="fill:#f47b20" />
		<path
   class="st1"
   d="m 291.5,28 h -4.4 l 3.5,-19.7 h 4.4 l -2.7,15.5 7.8,-11.7 0.7,-3.8 h 4.3 L 301.6,28 h -4.3 l 2,-11.6 z"
   id="path14"
   inkscape:connector-curvature="0"
   style="fill:#61116a" />
		<path
   class="st1"
   d="m 309.2,21 -1.2,7 h -4.4 l 2.7,-15.3 h 4.4 l -1.1,6.1 h 4.4 l 1.1,-6.1 h 4.3 L 316.7,28 h -4.3 l 1.2,-7 z"
   id="path16"
   inkscape:connector-curvature="0"
   style="fill:#61116a" />
		<path
   class="st1"
   d="m 326.8,19.3 1.2,-6.6 h 4.4 l -1.2,6.6 c 0.6,0 1.1,-0.2 1.7,-0.7 0.5,-0.4 0.8,-1 1,-1.6 l 0.8,-4.4 h 4.4 l -0.6,3.3 c -0.2,1.3 -0.8,2.3 -1.6,3.1 -0.8,0.7 -2,1.1 -3.5,1.3 1.4,0.2 2.4,0.7 3,1.4 0.6,0.8 0.8,1.8 0.5,3 l -0.6,3.3 h -4.4 l 0.8,-4.4 c 0.1,-0.5 0,-1 -0.4,-1.5 -0.4,-0.5 -0.8,-0.7 -1.4,-0.7 l -1.2,6.6 h -4.4 l 1.2,-6.6 c -0.6,0 -1.1,0.2 -1.7,0.7 -0.5,0.4 -0.8,0.9 -0.9,1.5 l -0.8,4.4 h -4.4 l 0.6,-3.3 c 0.2,-1.2 0.8,-2.2 1.7,-3 0.8,-0.7 2,-1.2 3.5,-1.4 -0.7,0 -1.3,-0.1 -1.8,-0.3 -0.5,-0.2 -0.9,-0.5 -1.2,-0.9 -0.3,-0.4 -0.5,-0.8 -0.6,-1.4 -0.1,-0.5 -0.1,-1.1 0,-1.7 l 0.6,-3.3 h 4.4 L 325,17 c -0.1,0.6 0,1.1 0.3,1.6 0.4,0.4 0.9,0.7 1.5,0.7 z"
   id="path18"
   inkscape:connector-curvature="0"
   style="fill:#61116a" />
		<path
   class="st1"
   d="M 349.7,12.7 H 354 L 351.3,28 H 347 l 0.4,-2.2 c -0.4,1.4 -1.3,2.2 -2.6,2.2 h -2.2 c -1.1,0 -2.1,-0.4 -2.8,-1.3 -0.8,-0.9 -1,-1.9 -0.8,-3.1 l 1.9,-10.9 h 4.4 l -1.9,10.9 c -0.1,0.6 0,1.1 0.3,1.6 0.4,0.4 0.9,0.7 1.4,0.7 0.6,0 1.1,-0.2 1.7,-0.7 0.5,-0.5 0.8,-1 0.9,-1.6 z"
   id="path20"
   inkscape:connector-curvature="0"
   style="fill:#61116a" />
		<path
   class="st1"
   d="m 359.2,21 -1.2,7 h -4.4 l 2.7,-15.3 h 4.4 l -1.1,6.1 h 4.4 l 1.1,-6.1 h 4.3 L 366.8,28 h -4.3 l 1.2,-7 z"
   id="path22"
   inkscape:connector-curvature="0"
   style="fill:#61116a" />
		<path
   class="st1"
   d="m 380.2,12.7 h 4.3 L 381.9,28 h -4.3 l 0.4,-2.2 c -0.4,1.4 -1.3,2.2 -2.6,2.2 h -2.2 c -1.1,0 -2.1,-0.4 -2.8,-1.3 -0.7,-0.9 -1,-1.9 -0.8,-3.1 l 1.9,-10.9 h 4.4 L 374,23.6 c -0.1,0.6 0,1.1 0.3,1.6 0.4,0.4 0.9,0.7 1.4,0.7 0.6,0 1.1,-0.2 1.7,-0.7 0.5,-0.5 0.8,-1 0.9,-1.6 z"
   id="path24"
   inkscape:connector-curvature="0"
   style="fill:#61116a" />
		<path
   class="st1"
   d="m 383.4,32.4 3.5,-19.7 h 4.4 l -0.4,2.1 c 0.1,-0.6 0.4,-1.2 0.8,-1.6 0.4,-0.4 1,-0.6 1.8,-0.6 h 2.2 c 1.2,0 2.1,0.4 2.8,1.2 0.7,0.8 0.9,1.9 0.7,3.1 l -1.2,6.6 c -0.2,1.2 -0.8,2.3 -1.8,3.1 -1,0.9 -2.1,1.3 -3.3,1.3 h -4.4 l -0.8,4.4 h -4.3 z m 7.1,-15.4 -1.6,8.8 h 2.2 c 0.5,0 1.1,-0.2 1.7,-0.7 0.5,-0.5 0.8,-1 0.9,-1.6 l 1.2,-6.6 c 0.1,-0.5 0,-1 -0.4,-1.5 -0.3,-0.4 -0.8,-0.6 -1.4,-0.7 -0.6,0 -1.1,0.2 -1.6,0.7 -0.6,0.5 -0.9,1 -1,1.6 z"
   id="path26"
   inkscape:connector-curvature="0"
   style="fill:#61116a" />
		<path
   class="st1"
   d="m 411.1,12.7 h 4.3 L 412.8,28 h -4.3 l 0.4,-2.2 c -0.4,1.4 -1.3,2.2 -2.6,2.2 H 404 c -1.1,0 -2.1,-0.4 -2.8,-1.3 -0.8,-0.9 -1,-1.9 -0.8,-3.1 l 1.9,-10.9 h 4.4 l -1.9,10.9 c -0.1,0.6 0,1.1 0.3,1.6 0.4,0.4 0.9,0.7 1.4,0.7 0.6,0 1.1,-0.2 1.7,-0.7 0.5,-0.5 0.8,-1 0.9,-1.6 z"
   id="path28"
   inkscape:connector-curvature="0"
   style="fill:#61116a" />
		<path
   class="st1"
   d="m 420.8,21 -1.2,7 h -4.4 l 2.7,-15.3 h 4.4 l -1.1,6.1 h 4.4 l 1.1,-6.1 H 431 L 428.4,28 H 424 l 1.2,-7 z"
   id="path30"
   inkscape:connector-curvature="0"
   style="fill:#61116a" />
		<path
   class="st1"
   d="M 437.5,14.9 435.2,28 h -4.4 l 2.7,-15.3 h 11.2 l -0.4,2.2 z"
   id="path32"
   inkscape:connector-curvature="0"
   style="fill:#61116a" />
	</g>
	<g
   id="g104">
		<path
   class="st1"
   d="m 218.6,37.1 h 4.5 l 0.6,-3.7 h 1.2 l -1.5,8.9 h -1.2 l 0.7,-4.1 h -4.5 l -0.7,4.1 h -1.2 l 1.5,-8.9 h 1.2 z"
   id="path36"
   inkscape:connector-curvature="0"
   style="fill:#61116a" />
		<path
   class="st1"
   d="m 225.7,37.8 c 0.3,-1.6 1.4,-2.1 3,-2.1 0.4,0 2,0.1 2,1.4 0,0.4 -0.7,4 -0.7,4.2 0,0.2 0.1,0.3 0.3,0.3 0.1,0 0.3,0 0.3,0 l -0.1,0.8 c -0.1,0 -0.4,0.1 -0.6,0.1 -0.6,0 -1,-0.2 -1,-0.7 0,-0.1 0,-0.2 0,-0.3 -0.5,0.5 -1.2,1 -2.4,1 -1,0 -1.6,-0.6 -1.7,-1.5 0,-1.4 1.1,-2.3 2.2,-2.4 0.4,0 1.7,-0.2 1.9,-0.2 0.6,-0.1 0.7,-0.6 0.7,-1 0,-0.5 -0.4,-0.8 -1.3,-0.8 -1.2,0 -1.5,0.8 -1.7,1.2 z m 1.8,1.6 c -0.8,0.1 -1.6,0.4 -1.6,1.4 0,0.5 0.3,0.8 1,0.8 1,0 2,-0.6 2.2,-1.5 l 0.2,-1.1 c -0.1,0.1 -0.9,0.3 -1.8,0.4 z"
   id="path38"
   inkscape:connector-curvature="0"
   style="fill:#61116a" />
		<path
   class="st1"
   d="m 233.1,35.8 0.8,5.3 v 0 l 2.6,-5.3 h 1.2 c -1.3,2.5 -2.7,5.3 -4.1,7.6 -0.7,1.1 -1,1.5 -2.2,1.5 -0.2,0 -0.3,0 -0.4,-0.1 l 0.2,-1 c 0.1,0 0.3,0.1 0.6,0.1 0.5,0 0.6,-0.2 1.4,-1.5 L 232,35.8 Z"
   id="path40"
   inkscape:connector-curvature="0"
   style="fill:#61116a" />
		<path
   class="st1"
   d="m 239.4,35.8 -0.3,2 c 0,0.1 0,0.1 0,0.2 0,0.5 0.4,0.7 1,0.7 0.5,0 1.2,-0.1 1.7,-0.2 l 0.5,-2.7 h 1.1 l -1.1,6.5 h -1.1 l 0.5,-2.9 c -0.7,0.2 -1.3,0.2 -2,0.2 -0.8,0 -1.6,-0.3 -1.7,-1.3 0,-0.1 0,-0.3 0,-0.4 l 0.4,-2.1 z"
   id="path42"
   inkscape:connector-curvature="0"
   style="fill:#61116a" />
		<path
   class="st1"
   d="m 245.4,38.4 h 2.9 l 0.4,-2.6 h 1.1 l -1.1,6.5 h -1.1 l 0.5,-3 h -2.9 l -0.5,3 h -1.1 l 1.1,-6.5 h 1.1 z"
   id="path44"
   inkscape:connector-curvature="0"
   style="fill:#61116a" />
		<path
   class="st1"
   d="m 250.4,39.9 c -0.1,-1.9 1.2,-4.3 3.6,-4.3 1.6,0 2.3,1.2 2.4,2.5 0.1,1.9 -1.2,4.3 -3.6,4.3 -1.6,0.1 -2.3,-1.1 -2.4,-2.5 z m 4.9,-1.6 c 0,-0.8 -0.3,-1.7 -1.5,-1.7 -1.8,0 -2.3,2.4 -2.3,3.2 0,0.8 0.3,1.7 1.4,1.7 2,0 2.4,-2.4 2.4,-3.2 z"
   id="path46"
   inkscape:connector-curvature="0"
   style="fill:#61116a" />
		<path
   class="st1"
   d="m 260.2,39.6 h -2.9 l 0.2,-0.9 h 2.9 z"
   id="path48"
   inkscape:connector-curvature="0"
   style="fill:#61116a" />
		<path
   class="st1"
   d="m 267.1,35.8 -1.1,6.5 h -1.1 l 1,-5.5 H 263 l -1,5.5 h -1.1 l 1.1,-6.5 z"
   id="path50"
   inkscape:connector-curvature="0"
   style="fill:#61116a" />
		<path
   class="st1"
   d="m 268.7,35.8 h 1 l -0.2,0.9 c 0.4,-0.5 1,-1.1 2.1,-1.1 1.3,0 2.1,0.9 2.1,2.3 0.1,1.7 -0.9,4.6 -3.4,4.6 -0.8,0 -1.3,-0.4 -1.5,-0.9 l -0.6,3.3 h -1.1 z m 0.4,4.1 c 0,0.9 0.4,1.6 1.3,1.6 1,0 2.2,-1.1 2.1,-3.5 0,-0.8 -0.3,-1.5 -1.3,-1.5 -1.7,0.1 -2.1,2.4 -2.1,3.4 z"
   id="path52"
   inkscape:connector-curvature="0"
   style="fill:#61116a" />
		<path
   class="st1"
   d="m 274.3,39.9 c -0.1,-1.9 1.2,-4.3 3.6,-4.3 1.6,0 2.3,1.2 2.4,2.5 0.1,1.9 -1.2,4.3 -3.6,4.3 -1.7,0.1 -2.4,-1.1 -2.4,-2.5 z m 4.8,-1.6 c 0,-0.8 -0.3,-1.7 -1.5,-1.7 -1.8,0 -2.3,2.4 -2.3,3.2 0,0.8 0.3,1.7 1.5,1.7 1.9,0 2.4,-2.4 2.3,-3.2 z"
   id="path54"
   inkscape:connector-curvature="0"
   style="fill:#61116a" />
		<path
   class="st1"
   d="m 282.1,40.7 v 0 l 3.9,-4.8 h 1.1 l -1.1,6.5 h -1 l 0.8,-4.8 v 0 l -3.9,4.8 h -1.1 l 1.1,-6.5 h 1.1 z"
   id="path56"
   inkscape:connector-curvature="0"
   style="fill:#61116a" />
		<path
   class="st1"
   d="m 289.8,39.4 0.2,-0.9 h 0.6 c 1,0 1.4,-0.6 1.4,-1.2 0,-0.5 -0.5,-0.7 -1.1,-0.7 -0.9,0 -1.4,0.3 -1.6,1.1 h -1 c 0.2,-0.8 1.1,-2 2.8,-2 1.3,0 2,0.6 2.1,1.5 0,1 -0.8,1.6 -1.3,1.8 0.4,0.2 1,0.5 1,1.3 0,1.5 -1.3,2.3 -2.8,2.3 -1.8,0 -2.3,-0.8 -2.3,-1.8 0,-0.1 0,-0.3 0,-0.4 h 1 c 0,0 0,0.2 0,0.2 0,0.7 0.4,1 1.4,1 0.8,0 1.7,-0.4 1.7,-1.3 0,-0.6 -0.5,-0.8 -1.2,-0.8 h -0.9 z"
   id="path58"
   inkscape:connector-curvature="0"
   style="fill:#61116a" />
		<path
   class="st1"
   d="m 294.6,35.8 h 2.8 c 1.2,0 1.8,0.6 1.8,1.3 0,0.9 -0.7,1.5 -1.3,1.7 0.6,0.1 1.1,0.5 1.2,1.3 0,1.3 -1,2.1 -2.6,2.1 h -3 z m 0.1,5.6 h 1.9 c 0.8,0 1.5,-0.3 1.5,-1.2 0,-0.5 -0.4,-0.8 -1.2,-0.8 h -1.8 z m 0.5,-2.9 h 1.5 c 0.9,0 1.5,-0.4 1.4,-1.1 0,-0.4 -0.2,-0.6 -1.1,-0.6 h -1.5 z"
   id="path60"
   inkscape:connector-curvature="0"
   style="fill:#61116a" />
		<path
   class="st1"
   d="m 300.1,39.9 c -0.1,-1.9 1.2,-4.3 3.6,-4.3 1.6,0 2.3,1.2 2.4,2.5 0.1,1.9 -1.2,4.3 -3.6,4.3 -1.6,0.1 -2.3,-1.1 -2.4,-2.5 z m 4.9,-1.6 c 0,-0.8 -0.3,-1.7 -1.5,-1.7 -1.8,0 -2.3,2.4 -2.3,3.2 0,0.8 0.3,1.7 1.4,1.7 2,0 2.4,-2.4 2.4,-3.2 z"
   id="path62"
   inkscape:connector-curvature="0"
   style="fill:#61116a" />
		<path
   class="st1"
   d="m 308.2,37.9 0.4,-2.1 h 4.4 l -1,5.5 h 0.7 l -0.5,2.8 h -1 l 0.3,-1.9 H 307 l -0.3,1.9 h -1 l 0.5,-2.8 h 0.7 c 0.8,-1.1 1.1,-2.2 1.3,-3.4 z m 3.6,-1.2 h -2.3 l -0.2,1.2 c -0.2,1.4 -0.6,2.4 -1.2,3.5 h 2.9 z"
   id="path64"
   inkscape:connector-curvature="0"
   style="fill:#61116a" />
		<path
   class="st1"
   d="m 318.1,38 c 0,-0.9 -0.3,-1.4 -1.2,-1.4 -1.7,0 -2.3,2.1 -2.2,3.4 0,0.8 0.3,1.5 1.4,1.5 0.7,0 1.4,-0.5 1.8,-1.5 h 1 c -0.3,1 -1.1,2.5 -3,2.5 -1.5,0 -2.3,-0.9 -2.3,-2.3 -0.1,-2.3 1.4,-4.5 3.7,-4.5 1.4,0 1.9,0.9 1.9,1.9 0,0.2 0,0.3 0,0.5 h -1.1 z"
   id="path66"
   inkscape:connector-curvature="0"
   style="fill:#61116a" />
		<path
   class="st1"
   d="m 325.2,35.8 -0.1,0.9 H 323 l -1,5.5 h -1 l 1,-5.5 h -2.1 l 0.2,-0.9 z"
   id="path68"
   inkscape:connector-curvature="0"
   style="fill:#61116a" />
		<path
   class="st1"
   d="m 326.1,35.8 h 2.8 c 1.2,0 1.8,0.6 1.8,1.3 0,0.9 -0.7,1.5 -1.3,1.7 0.6,0.1 1.1,0.5 1.2,1.3 0,1.3 -1,2.1 -2.6,2.1 h -3 z m 0.1,5.6 h 1.9 c 0.8,0 1.5,-0.3 1.5,-1.2 0,-0.5 -0.4,-0.8 -1.2,-0.8 h -1.8 z m 0.5,-2.9 h 1.5 c 0.9,0 1.5,-0.4 1.4,-1.1 0,-0.4 -0.2,-0.6 -1.1,-0.6 H 327 Z"
   id="path70"
   inkscape:connector-curvature="0"
   style="fill:#61116a" />
		<path
   class="st1"
   d="m 337.1,40.2 c -0.4,1 -1.3,2.2 -3.2,2.2 -1.5,0 -2.2,-0.9 -2.3,-2.3 -0.1,-2.4 1.4,-4.5 3.7,-4.5 1.4,0 2.1,0.9 2.1,2.4 0,0.4 0,0.9 -0.1,1.4 h -4.6 c 0,0.3 -0.1,0.5 -0.1,0.7 0,0.9 0.5,1.4 1.5,1.4 1,0 1.7,-0.8 1.8,-1.3 z m -0.7,-1.7 c 0,-0.2 0,-0.3 0,-0.5 0,-0.8 -0.4,-1.4 -1.4,-1.4 -1,0 -1.9,0.9 -2.1,1.9 z"
   id="path72"
   inkscape:connector-curvature="0"
   style="fill:#61116a" />
		<path
   class="st1"
   d="m 339.7,38.4 h 2.9 l 0.4,-2.6 h 1.1 l -1.1,6.5 h -1 l 0.5,-3 h -2.9 l -0.5,3 H 338 l 1.1,-6.5 h 1.1 z"
   id="path74"
   inkscape:connector-curvature="0"
   style="fill:#61116a" />
		<path
   class="st1"
   d="m 346.3,38.4 h 2.9 l 0.4,-2.6 h 1.1 l -1.1,6.5 h -1.1 l 0.5,-3 h -2.9 l -0.5,3 h -1.1 l 1.1,-6.5 h 1.1 z"
   id="path76"
   inkscape:connector-curvature="0"
   style="fill:#61116a" />
		<path
   class="st1"
   d="m 351.3,39.9 c -0.1,-1.9 1.2,-4.3 3.6,-4.3 1.6,0 2.3,1.2 2.4,2.5 0.1,1.9 -1.2,4.3 -3.6,4.3 -1.7,0.1 -2.4,-1.1 -2.4,-2.5 z m 4.8,-1.6 c 0,-0.8 -0.3,-1.7 -1.5,-1.7 -1.8,0 -2.3,2.4 -2.3,3.2 0,0.8 0.3,1.7 1.4,1.7 2,0 2.4,-2.4 2.4,-3.2 z"
   id="path78"
   inkscape:connector-curvature="0"
   style="fill:#61116a" />
		<path
   class="st1"
   d="m 363.4,40.2 c -0.4,1 -1.3,2.2 -3.2,2.2 -1.5,0 -2.2,-0.9 -2.3,-2.3 -0.1,-2.4 1.4,-4.5 3.7,-4.5 1.4,0 2.1,0.9 2.1,2.4 0,0.4 0,0.9 -0.1,1.4 H 359 c 0,0.3 -0.1,0.5 -0.1,0.7 0,0.9 0.5,1.4 1.5,1.4 1,0 1.7,-0.8 1.8,-1.3 z m -0.7,-1.7 c 0,-0.2 0,-0.3 0,-0.5 0,-0.8 -0.4,-1.4 -1.4,-1.4 -1,0 -1.9,0.9 -2.1,1.9 z"
   id="path80"
   inkscape:connector-curvature="0"
   style="fill:#61116a" />
		<path
   class="st1"
   d="m 367.8,39.9 c -0.1,-1.9 1.2,-4.3 3.6,-4.3 1.6,0 2.3,1.2 2.4,2.5 0.1,1.9 -1.2,4.3 -3.6,4.3 -1.7,0.1 -2.4,-1.1 -2.4,-2.5 z m 4.8,-1.6 c 0,-0.8 -0.3,-1.7 -1.4,-1.7 -1.8,0 -2.3,2.4 -2.3,3.2 0,0.8 0.3,1.7 1.4,1.7 1.9,0 2.3,-2.4 2.3,-3.2 z"
   id="path82"
   inkscape:connector-curvature="0"
   style="fill:#61116a" />
		<path
   class="st1"
   d="m 380.6,33.4 c -0.7,1.2 -1.4,1.3 -2.4,1.5 -1.4,0.2 -2.3,0.9 -2.8,2.3 0.6,-0.7 1.6,-1.2 2.4,-1.2 1.5,0 2.2,1.1 2.2,2.4 0.1,1.9 -1.2,4.1 -3.6,4.1 -1.3,0 -2.2,-0.7 -2.2,-2.5 0,-0.5 0,-1 0.1,-1.6 0.4,-2.3 1.7,-4 3.7,-4.3 1.1,-0.2 1.4,-0.3 1.6,-0.6 h 1 z m -1.6,5.1 c 0,-0.7 -0.3,-1.7 -1.5,-1.7 -1.7,0 -2.3,2 -2.3,3.1 0,0.8 0.4,1.5 1.5,1.5 1.8,0.1 2.3,-2.1 2.3,-2.9 z"
   id="path84"
   inkscape:connector-curvature="0"
   style="fill:#61116a" />
		<path
   class="st1"
   d="m 383.9,35.8 -0.5,2.6 h 1.5 c 1.4,0 2,0.6 2.1,1.5 0,1.2 -0.8,2.3 -2.7,2.3 h -2.6 l 1,-5.5 h -1.5 l 0.1,-0.9 z m -1,5.6 h 1.5 c 1.3,0 1.5,-0.7 1.5,-1.3 0,-0.5 -0.4,-0.8 -1.1,-0.8 h -1.5 z"
   id="path86"
   inkscape:connector-curvature="0"
   style="fill:#61116a" />
		<path
   class="st1"
   d="m 393.4,40.2 c -0.4,1 -1.3,2.2 -3.2,2.2 -1.5,0 -2.2,-0.9 -2.3,-2.3 -0.1,-2.4 1.4,-4.5 3.7,-4.5 1.4,0 2.1,0.9 2.1,2.4 0,0.4 0,0.9 -0.1,1.4 H 389 c 0,0.3 -0.1,0.5 -0.1,0.7 0,0.9 0.5,1.4 1.5,1.4 1,0 1.7,-0.8 1.8,-1.3 z m -0.7,-1.7 c 0,-0.2 0,-0.3 0,-0.5 0,-0.8 -0.4,-1.4 -1.4,-1.4 -1,0 -1.9,0.9 -2.1,1.9 z"
   id="path88"
   inkscape:connector-curvature="0"
   style="fill:#61116a" />
		<path
   class="st1"
   d="m 396,37.9 0.4,-2.1 h 4.4 l -1,5.5 h 0.7 l -0.5,2.8 h -1 l 0.3,-1.9 h -4.6 l -0.3,1.9 h -1 l 0.5,-2.8 h 0.7 c 0.9,-1.1 1.2,-2.2 1.4,-3.4 z m 3.5,-1.2 h -2.3 l -0.2,1.2 c -0.2,1.4 -0.6,2.4 -1.2,3.5 h 2.9 z"
   id="path90"
   inkscape:connector-curvature="0"
   style="fill:#61116a" />
		<path
   class="st1"
   d="m 402.5,40.7 v 0 l 3.9,-4.8 h 1.1 l -1.1,6.5 h -1 l 0.8,-4.8 v 0 l -3.9,4.8 h -1.1 l 1.1,-6.5 h 1.1 z"
   id="path92"
   inkscape:connector-curvature="0"
   style="fill:#61116a" />
		<path
   class="st1"
   d="m 409.7,38.4 h 2.9 l 0.4,-2.6 h 1.1 l -1.1,6.5 h -1.1 l 0.5,-3 h -2.9 l -0.5,3 h -1.1 l 1.1,-6.5 h 1.1 z"
   id="path94"
   inkscape:connector-curvature="0"
   style="fill:#61116a" />
		<path
   class="st1"
   d="m 420.1,40.2 c -0.4,1 -1.3,2.2 -3.2,2.2 -1.5,0 -2.2,-0.9 -2.3,-2.3 -0.1,-2.4 1.4,-4.5 3.7,-4.5 1.4,0 2.1,0.9 2.1,2.4 0,0.4 0,0.9 -0.1,1.4 h -4.6 c 0,0.3 -0.1,0.5 -0.1,0.7 0,0.9 0.5,1.4 1.5,1.4 1,0 1.7,-0.8 1.8,-1.3 z m -0.7,-1.7 c 0,-0.2 0,-0.3 0,-0.5 0,-0.8 -0.4,-1.4 -1.4,-1.4 -1,0 -1.9,0.9 -2.1,1.9 z"
   id="path96"
   inkscape:connector-curvature="0"
   style="fill:#61116a" />
		<path
   class="st1"
   d="m 422.8,38.4 h 2.9 l 0.4,-2.6 h 1.1 l -1.1,6.5 H 425 l 0.5,-3 h -2.9 l -0.5,3 H 421 l 1.1,-6.5 h 1.1 z"
   id="path98"
   inkscape:connector-curvature="0"
   style="fill:#61116a" />
		<path
   class="st1"
   d="m 428.9,40.7 v 0 l 3.9,-4.8 h 1.1 l -1.1,6.5 h -1.1 l 0.8,-4.8 v 0 l -3.9,4.8 h -1.1 l 1.1,-6.5 h 1.1 z"
   id="path100"
   inkscape:connector-curvature="0"
   style="fill:#61116a" />
		<path
   class="st1"
   d="m 440,40.2 c -0.4,1 -1.3,2.2 -3.2,2.2 -1.5,0 -2.2,-0.9 -2.3,-2.3 -0.1,-2.4 1.4,-4.5 3.7,-4.5 1.4,0 2.1,0.9 2.1,2.4 0,0.4 0,0.9 -0.1,1.4 h -4.6 c 0,0.3 -0.1,0.5 -0.1,0.7 0,0.9 0.5,1.4 1.5,1.4 1,0 1.7,-0.8 1.8,-1.3 z m -0.7,-1.7 c 0,-0.2 0,-0.3 0,-0.5 0,-0.8 -0.4,-1.4 -1.4,-1.4 -1,0 -1.9,0.9 -2.1,1.9 z"
   id="path102"
   inkscape:connector-curvature="0"
   style="fill:#61116a" />
	</g>
	<g
   id="g112">
		<path
   class="st0"
   d="m 174.3,36.6 c -7.2,0 -11.1,-4 -8.7,-8.9 2.4,-4.9 10.2,-8.9 17.4,-8.9 7.2,0 11.1,4 8.7,8.9 -2.5,5 -10.2,8.9 -17.4,8.9 z m 11.6,-8.9 c 1.3,-2.8 -0.8,-5 -4.9,-5 -4,0 -8.4,2.2 -9.7,5 -1.3,2.8 0.8,5 4.9,5 4,0 8.3,-2.2 9.7,-5 z"
   id="path106"
   inkscape:connector-curvature="0"
   style="fill:#f47b20" />
		<path
   class="st0"
   d="m 172.3,40.8 c -9.4,0 -14.9,-4.6 -13.5,-10.7 h -12.3 c -3.5,10.7 5.7,19.1 21.8,19.1 16.1,0 33.4,-8.4 40.3,-19.1 h -12.3 c -4.7,6 -14.7,10.7 -24,10.7 z"
   id="path108"
   inkscape:connector-curvature="0"
   style="fill:#f47b20" />
		<path
   class="st1"
   d="m 188.9,6.3 c -16.1,0 -33.4,8.4 -40.5,19.3 h 12.3 c 4.8,-6.3 14.8,-10.9 24.1,-10.9 9.4,0 14.9,4.6 13.5,10.9 h 12.3 C 214.3,14.7 205,6.3 188.9,6.3 Z"
   id="path110"
   inkscape:connector-curvature="0"
   style="fill:#61116a" />
	</g>
</g>
</svg>