<?xml version="1.0" encoding="utf-8"?>
<!-- Generator: Adobe Illustrator 19.0.1, SVG Export Plug-In . SVG Version: 6.00 Build 0)  -->
<svg version="1.1" id="Rus" xmlns="http://www.w3.org/2000/svg" xmlns:xlink="http://www.w3.org/1999/xlink" x="0px" y="0px"
	 viewBox="0 0 595.3 57" style="enable-background:new 0 0 595.3 57;" xml:space="preserve">
<style type="text/css">
	.st0{fill:#F47B20;}
	.st1{fill:#61116A;}
</style>
<g>
	<g>
		<path class="st0" d="M223.4,28H219l3.1-17.6h-4.4l0.4-2.1h13.2l-0.4,2.1h-4.4L223.4,28z"/>
		<path class="st0" d="M227.1,32.4l3.5-19.7h4.4l-0.4,2.1c0.1-0.6,0.4-1.2,0.8-1.6c0.4-0.4,1-0.6,1.8-0.6h2.2c1.2,0,2.1,0.4,2.8,1.2
			c0.7,0.8,0.9,1.9,0.7,3.1l-1.2,6.6c-0.2,1.2-0.8,2.3-1.8,3.1c-1,0.9-2.1,1.3-3.3,1.3h-4.4l-0.8,4.4H227.1z M234.2,17l-1.6,8.8h2.2
			c0.5,0,1.1-0.2,1.7-0.7c0.5-0.5,0.8-1,0.9-1.6l1.2-6.6c0.1-0.5,0-1-0.4-1.5c-0.3-0.4-0.8-0.6-1.5-0.7c-0.6,0-1.1,0.2-1.6,0.7
			C234.6,15.9,234.3,16.4,234.2,17z"/>
		<path class="st0" d="M253.2,19.2l0.4-2.2c0.1-0.5,0-1-0.4-1.5c-0.4-0.5-0.8-0.7-1.4-0.7h-1.8c-1.2,0-2.1,0.7-2.6,2.2h-2.3
			c0.9-2.9,2.6-4.3,5.2-4.3h4c1.2,0,2.1,0.4,2.8,1.2c0.7,0.8,0.9,1.9,0.7,3.1L256,28h-4.3l0.4-2.2c-0.4,1.4-1.3,2.2-2.6,2.2h-2.2
			c-1.1,0-2.1-0.4-2.8-1.3c-0.7-0.9-1-1.9-0.8-3.1c0.2-1.2,0.8-2.2,1.9-3.1c1-0.9,2.1-1.3,3.3-1.3H253.2z M252.8,21.4h-2.2
			c-0.5,0-1.1,0.2-1.7,0.6c-0.2,0.2-0.4,0.5-0.6,0.7c-0.2,0.3-0.3,0.5-0.3,0.9c-0.1,0.6,0,1.1,0.3,1.6c0.4,0.4,0.9,0.7,1.4,0.7
			c0.6,0,1.1-0.2,1.7-0.7c0.5-0.5,0.8-1,0.9-1.6L252.8,21.4z"/>
		<path class="st0" d="M263.6,21l-1.2,7h-4.4l2.7-15.3h4.4l-1.1,6.1h4.4l1.1-6.1h4.3L271.1,28h-4.3l1.2-7H263.6z"/>
		<path class="st0" d="M282.4,12.7c2.7,0,3.9,1.4,3.7,4.3h-2.2c0.1-1.5-0.5-2.2-1.8-2.2c-0.6,0-1.1,0.2-1.6,0.7
			c-0.5,0.4-0.8,0.9-0.9,1.5l-1.2,6.6c-0.1,0.6,0,1.1,0.3,1.6c0.4,0.4,0.9,0.6,1.4,0.6c1.3,0,2.2-0.7,2.6-2.2l2.2,0
			c-0.3,1.4-0.8,2.5-1.7,3.3c-0.9,0.7-2.1,1.1-3.5,1.1h-2.2c-1.1,0-2.1-0.4-2.8-1.3c-0.8-0.9-1-1.9-0.8-3.1L275,17
			c0.2-1.1,0.8-2.1,1.8-3c1-0.9,2.1-1.3,3.3-1.3H282.4z"/>
		<path class="st1" d="M291.5,28h-4.4l3.5-19.7h4.4l-2.7,15.5l7.8-11.7l0.7-3.8h4.3L301.6,28h-4.3l2-11.6L291.5,28z"/>
		<path class="st1" d="M309.2,21l-1.2,7h-4.4l2.7-15.3h4.4l-1.1,6.1h4.4l1.1-6.1h4.3L316.7,28h-4.3l1.2-7H309.2z"/>
		<path class="st1" d="M326.8,19.3l1.2-6.6h4.4l-1.2,6.6c0.6,0,1.1-0.2,1.7-0.7c0.5-0.4,0.8-1,1-1.6l0.8-4.4h4.4l-0.6,3.3
			c-0.2,1.3-0.8,2.3-1.6,3.1c-0.8,0.7-2,1.1-3.5,1.3c1.4,0.2,2.4,0.7,3,1.4c0.6,0.8,0.8,1.8,0.5,3l-0.6,3.3h-4.4l0.8-4.4
			c0.1-0.5,0-1-0.4-1.5c-0.4-0.5-0.8-0.7-1.4-0.7l-1.2,6.6h-4.4l1.2-6.6c-0.6,0-1.1,0.2-1.7,0.7c-0.5,0.4-0.8,0.9-0.9,1.5l-0.8,4.4
			h-4.4l0.6-3.3c0.2-1.2,0.8-2.2,1.7-3c0.8-0.7,2-1.2,3.5-1.4c-0.7,0-1.3-0.1-1.8-0.3c-0.5-0.2-0.9-0.5-1.2-0.9
			c-0.3-0.4-0.5-0.8-0.6-1.4c-0.1-0.5-0.1-1.1,0-1.7l0.6-3.3h4.4L325,17c-0.1,0.6,0,1.1,0.3,1.6C325.7,19,326.2,19.3,326.8,19.3z"/>
		<path class="st1" d="M349.7,12.7h4.3L351.3,28H347l0.4-2.2c-0.4,1.4-1.3,2.2-2.6,2.2h-2.2c-1.1,0-2.1-0.4-2.8-1.3
			c-0.8-0.9-1-1.9-0.8-3.1l1.9-10.9h4.4l-1.9,10.9c-0.1,0.6,0,1.1,0.3,1.6c0.4,0.4,0.9,0.7,1.4,0.7c0.6,0,1.1-0.2,1.7-0.7
			c0.5-0.5,0.8-1,0.9-1.6L349.7,12.7z"/>
		<path class="st1" d="M359.2,21l-1.2,7h-4.4l2.7-15.3h4.4l-1.1,6.1h4.4l1.1-6.1h4.3L366.8,28h-4.3l1.2-7H359.2z"/>
		<path class="st1" d="M380.2,12.7h4.3L381.9,28h-4.3l0.4-2.2c-0.4,1.4-1.3,2.2-2.6,2.2h-2.2c-1.1,0-2.1-0.4-2.8-1.3
			c-0.7-0.9-1-1.9-0.8-3.1l1.9-10.9h4.4l-1.9,10.9c-0.1,0.6,0,1.1,0.3,1.6c0.4,0.4,0.9,0.7,1.4,0.7c0.6,0,1.1-0.2,1.7-0.7
			c0.5-0.5,0.8-1,0.9-1.6L380.2,12.7z"/>
		<path class="st1" d="M383.4,32.4l3.5-19.7h4.4l-0.4,2.1c0.1-0.6,0.4-1.2,0.8-1.6c0.4-0.4,1-0.6,1.8-0.6h2.2c1.2,0,2.1,0.4,2.8,1.2
			c0.7,0.8,0.9,1.9,0.7,3.1l-1.2,6.6c-0.2,1.2-0.8,2.3-1.8,3.1c-1,0.9-2.1,1.3-3.3,1.3h-4.4l-0.8,4.4H383.4z M390.5,17l-1.6,8.8h2.2
			c0.5,0,1.1-0.2,1.7-0.7c0.5-0.5,0.8-1,0.9-1.6l1.2-6.6c0.1-0.5,0-1-0.4-1.5c-0.3-0.4-0.8-0.6-1.4-0.7c-0.6,0-1.1,0.2-1.6,0.7
			C390.9,15.9,390.6,16.4,390.5,17z"/>
		<path class="st1" d="M411.1,12.7h4.3L412.8,28h-4.3l0.4-2.2c-0.4,1.4-1.3,2.2-2.6,2.2H404c-1.1,0-2.1-0.4-2.8-1.3
			c-0.8-0.9-1-1.9-0.8-3.1l1.9-10.9h4.4l-1.9,10.9c-0.1,0.6,0,1.1,0.3,1.6c0.4,0.4,0.9,0.7,1.4,0.7c0.6,0,1.1-0.2,1.7-0.7
			c0.5-0.5,0.8-1,0.9-1.6L411.1,12.7z"/>
		<path class="st1" d="M420.8,21l-1.2,7h-4.4l2.7-15.3h4.4l-1.1,6.1h4.4l1.1-6.1h4.3L428.4,28H424l1.2-7H420.8z"/>
		<path class="st1" d="M437.5,14.9L435.2,28h-4.4l2.7-15.3h11.2l-0.4,2.2H437.5z"/>
	</g>
	<g>
		<path class="st1" d="M218.6,37.1h4.5l0.6-3.7h1.2l-1.5,8.9h-1.2l0.7-4.1h-4.5l-0.7,4.1h-1.2l1.5-8.9h1.2L218.6,37.1z"/>
		<path class="st1" d="M225.7,37.8c0.3-1.6,1.4-2.1,3-2.1c0.4,0,2,0.1,2,1.4c0,0.4-0.7,4-0.7,4.2c0,0.2,0.1,0.3,0.3,0.3
			c0.1,0,0.3,0,0.3,0l-0.1,0.8c-0.1,0-0.4,0.1-0.6,0.1c-0.6,0-1-0.2-1-0.7c0-0.1,0-0.2,0-0.3c-0.5,0.5-1.2,1-2.4,1
			c-1,0-1.6-0.6-1.7-1.5c0-1.4,1.1-2.3,2.2-2.4c0.4,0,1.7-0.2,1.9-0.2c0.6-0.1,0.7-0.6,0.7-1c0-0.5-0.4-0.8-1.3-0.8
			c-1.2,0-1.5,0.8-1.7,1.2H225.7z M227.5,39.4c-0.8,0.1-1.6,0.4-1.6,1.4c0,0.5,0.3,0.8,1,0.8c1,0,2-0.6,2.2-1.5l0.2-1.1
			C229.2,39.1,228.4,39.3,227.5,39.4z"/>
		<path class="st1" d="M233.1,35.8l0.8,5.3h0l2.6-5.3h1.2c-1.3,2.5-2.7,5.3-4.1,7.6c-0.7,1.1-1,1.5-2.2,1.5c-0.2,0-0.3,0-0.4-0.1
			l0.2-1c0.1,0,0.3,0.1,0.6,0.1c0.5,0,0.6-0.2,1.4-1.5l-1.2-6.6H233.1z"/>
		<path class="st1" d="M239.4,35.8l-0.3,2c0,0.1,0,0.1,0,0.2c0,0.5,0.4,0.7,1,0.7c0.5,0,1.2-0.1,1.7-0.2l0.5-2.7h1.1l-1.1,6.5h-1.1
			l0.5-2.9c-0.7,0.2-1.3,0.2-2,0.2c-0.8,0-1.6-0.3-1.7-1.3c0-0.1,0-0.3,0-0.4l0.4-2.1H239.4z"/>
		<path class="st1" d="M245.4,38.4h2.9l0.4-2.6h1.1l-1.1,6.5h-1.1l0.5-3h-2.9l-0.5,3h-1.1l1.1-6.5h1.1L245.4,38.4z"/>
		<path class="st1" d="M250.4,39.9c-0.1-1.9,1.2-4.3,3.6-4.3c1.6,0,2.3,1.2,2.4,2.5c0.1,1.9-1.2,4.3-3.6,4.3
			C251.2,42.5,250.5,41.3,250.4,39.9z M255.3,38.3c0-0.8-0.3-1.7-1.5-1.7c-1.8,0-2.3,2.4-2.3,3.2c0,0.8,0.3,1.7,1.4,1.7
			C254.9,41.5,255.3,39.1,255.3,38.3z"/>
		<path class="st1" d="M260.2,39.6h-2.9l0.2-0.9h2.9L260.2,39.6z"/>
		<path class="st1" d="M267.1,35.8l-1.1,6.5h-1.1l1-5.5h-2.9l-1,5.5h-1.1l1.1-6.5H267.1z"/>
		<path class="st1" d="M268.7,35.8h1l-0.2,0.9c0.4-0.5,1-1.1,2.1-1.1c1.3,0,2.1,0.9,2.1,2.3c0.1,1.7-0.9,4.6-3.4,4.6
			c-0.8,0-1.3-0.4-1.5-0.9l-0.6,3.3h-1.1L268.7,35.8z M269.1,39.9c0,0.9,0.4,1.6,1.3,1.6c1,0,2.2-1.1,2.1-3.5c0-0.8-0.3-1.5-1.3-1.5
			C269.5,36.6,269.1,38.9,269.1,39.9z"/>
		<path class="st1" d="M274.3,39.9c-0.1-1.9,1.2-4.3,3.6-4.3c1.6,0,2.3,1.2,2.4,2.5c0.1,1.9-1.2,4.3-3.6,4.3
			C275,42.5,274.3,41.3,274.3,39.9z M279.1,38.3c0-0.8-0.3-1.7-1.5-1.7c-1.8,0-2.3,2.4-2.3,3.2c0,0.8,0.3,1.7,1.5,1.7
			C278.7,41.5,279.2,39.1,279.1,38.3z"/>
		<path class="st1" d="M282.1,40.7L282.1,40.7l3.9-4.8h1.1l-1.1,6.5H285l0.8-4.8h0l-3.9,4.8h-1.1l1.1-6.5h1.1L282.1,40.7z"/>
		<path class="st1" d="M289.8,39.4l0.2-0.9h0.6c1,0,1.4-0.6,1.4-1.2c0-0.5-0.5-0.7-1.1-0.7c-0.9,0-1.4,0.3-1.6,1.1h-1
			c0.2-0.8,1.1-2,2.8-2c1.3,0,2,0.6,2.1,1.5c0,1-0.8,1.6-1.3,1.8c0.4,0.2,1,0.5,1,1.3c0,1.5-1.3,2.3-2.8,2.3c-1.8,0-2.3-0.8-2.3-1.8
			c0-0.1,0-0.3,0-0.4h1c0,0,0,0.2,0,0.2c0,0.7,0.4,1,1.4,1c0.8,0,1.7-0.4,1.7-1.3c0-0.6-0.5-0.8-1.2-0.8H289.8z"/>
		<path class="st1" d="M294.6,35.8h2.8c1.2,0,1.8,0.6,1.8,1.3c0,0.9-0.7,1.5-1.3,1.7c0.6,0.1,1.1,0.5,1.2,1.3c0,1.3-1,2.1-2.6,2.1
			h-3L294.6,35.8z M294.7,41.4h1.9c0.8,0,1.5-0.3,1.5-1.2c0-0.5-0.4-0.8-1.2-0.8h-1.8L294.7,41.4z M295.2,38.5h1.5
			c0.9,0,1.5-0.4,1.4-1.1c0-0.4-0.2-0.6-1.1-0.6h-1.5L295.2,38.5z"/>
		<path class="st1" d="M300.1,39.9c-0.1-1.9,1.2-4.3,3.6-4.3c1.6,0,2.3,1.2,2.4,2.5c0.1,1.9-1.2,4.3-3.6,4.3
			C300.9,42.5,300.2,41.3,300.1,39.9z M305,38.3c0-0.8-0.3-1.7-1.5-1.7c-1.8,0-2.3,2.4-2.3,3.2c0,0.8,0.3,1.7,1.4,1.7
			C304.6,41.5,305,39.1,305,38.3z"/>
		<path class="st1" d="M308.2,37.9l0.4-2.1h4.4l-1,5.5h0.7l-0.5,2.8h-1l0.3-1.9H307l-0.3,1.9h-1l0.5-2.8h0.7
			C307.7,40.2,308,39.1,308.2,37.9z M311.8,36.7h-2.3l-0.2,1.2c-0.2,1.4-0.6,2.4-1.2,3.5h2.9L311.8,36.7z"/>
		<path class="st1" d="M318.1,38c0-0.9-0.3-1.4-1.2-1.4c-1.7,0-2.3,2.1-2.2,3.4c0,0.8,0.3,1.5,1.4,1.5c0.7,0,1.4-0.5,1.8-1.5h1
			c-0.3,1-1.1,2.5-3,2.5c-1.5,0-2.3-0.9-2.3-2.3c-0.1-2.3,1.4-4.5,3.7-4.5c1.4,0,1.9,0.9,1.9,1.9c0,0.2,0,0.3,0,0.5H318.1z"/>
		<path class="st1" d="M325.2,35.8l-0.1,0.9H323l-1,5.5H321l1-5.5h-2.1l0.2-0.9H325.2z"/>
		<path class="st1" d="M326.1,35.8h2.8c1.2,0,1.8,0.6,1.8,1.3c0,0.9-0.7,1.5-1.3,1.7c0.6,0.1,1.1,0.5,1.2,1.3c0,1.3-1,2.1-2.6,2.1
			h-3L326.1,35.8z M326.2,41.4h1.9c0.8,0,1.5-0.3,1.5-1.2c0-0.5-0.4-0.8-1.2-0.8h-1.8L326.2,41.4z M326.7,38.5h1.5
			c0.9,0,1.5-0.4,1.4-1.1c0-0.4-0.2-0.6-1.1-0.6H327L326.7,38.5z"/>
		<path class="st1" d="M337.1,40.2c-0.4,1-1.3,2.2-3.2,2.2c-1.5,0-2.2-0.9-2.3-2.3c-0.1-2.4,1.4-4.5,3.7-4.5c1.4,0,2.1,0.9,2.1,2.4
			c0,0.4,0,0.9-0.1,1.4h-4.6c0,0.3-0.1,0.5-0.1,0.7c0,0.9,0.5,1.4,1.5,1.4c1,0,1.7-0.8,1.8-1.3H337.1z M336.4,38.5
			c0-0.2,0-0.3,0-0.5c0-0.8-0.4-1.4-1.4-1.4c-1,0-1.9,0.9-2.1,1.9H336.4z"/>
		<path class="st1" d="M339.7,38.4h2.9l0.4-2.6h1.1l-1.1,6.5H342l0.5-3h-2.9l-0.5,3H338l1.1-6.5h1.1L339.7,38.4z"/>
		<path class="st1" d="M346.3,38.4h2.9l0.4-2.6h1.1l-1.1,6.5h-1.1l0.5-3h-2.9l-0.5,3h-1.1l1.1-6.5h1.1L346.3,38.4z"/>
		<path class="st1" d="M351.3,39.9c-0.1-1.9,1.2-4.3,3.6-4.3c1.6,0,2.3,1.2,2.4,2.5c0.1,1.9-1.2,4.3-3.6,4.3
			C352,42.5,351.3,41.3,351.3,39.9z M356.1,38.3c0-0.8-0.3-1.7-1.5-1.7c-1.8,0-2.3,2.4-2.3,3.2c0,0.8,0.3,1.7,1.4,1.7
			C355.7,41.5,356.1,39.1,356.1,38.3z"/>
		<path class="st1" d="M363.4,40.2c-0.4,1-1.3,2.2-3.2,2.2c-1.5,0-2.2-0.9-2.3-2.3c-0.1-2.4,1.4-4.5,3.7-4.5c1.4,0,2.1,0.9,2.1,2.4
			c0,0.4,0,0.9-0.1,1.4H359c0,0.3-0.1,0.5-0.1,0.7c0,0.9,0.5,1.4,1.5,1.4c1,0,1.7-0.8,1.8-1.3H363.4z M362.7,38.5c0-0.2,0-0.3,0-0.5
			c0-0.8-0.4-1.4-1.4-1.4c-1,0-1.9,0.9-2.1,1.9H362.7z"/>
		<path class="st1" d="M367.8,39.9c-0.1-1.9,1.2-4.3,3.6-4.3c1.6,0,2.3,1.2,2.4,2.5c0.1,1.9-1.2,4.3-3.6,4.3
			C368.5,42.5,367.8,41.3,367.8,39.9z M372.6,38.3c0-0.8-0.3-1.7-1.4-1.7c-1.8,0-2.3,2.4-2.3,3.2c0,0.8,0.3,1.7,1.4,1.7
			C372.2,41.5,372.6,39.1,372.6,38.3z"/>
		<path class="st1" d="M380.6,33.4c-0.7,1.2-1.4,1.3-2.4,1.5c-1.4,0.2-2.3,0.9-2.8,2.3c0.6-0.7,1.6-1.2,2.4-1.2
			c1.5,0,2.2,1.1,2.2,2.4c0.1,1.9-1.2,4.1-3.6,4.1c-1.3,0-2.2-0.7-2.2-2.5c0-0.5,0-1,0.1-1.6c0.4-2.3,1.7-4,3.7-4.3
			c1.1-0.2,1.4-0.3,1.6-0.6H380.6z M379,38.5c0-0.7-0.3-1.7-1.5-1.7c-1.7,0-2.3,2-2.3,3.1c0,0.8,0.4,1.5,1.5,1.5
			C378.5,41.5,379,39.3,379,38.5z"/>
		<path class="st1" d="M383.9,35.8l-0.5,2.6h1.5c1.4,0,2,0.6,2.1,1.5c0,1.2-0.8,2.3-2.7,2.3h-2.6l1-5.5h-1.5l0.1-0.9H383.9z
			 M382.9,41.4h1.5c1.3,0,1.5-0.7,1.5-1.3c0-0.5-0.4-0.8-1.1-0.8h-1.5L382.9,41.4z"/>
		<path class="st1" d="M393.4,40.2c-0.4,1-1.3,2.2-3.2,2.2c-1.5,0-2.2-0.9-2.3-2.3c-0.1-2.4,1.4-4.5,3.7-4.5c1.4,0,2.1,0.9,2.1,2.4
			c0,0.4,0,0.9-0.1,1.4h-4.6c0,0.3-0.1,0.5-0.1,0.7c0,0.9,0.5,1.4,1.5,1.4c1,0,1.7-0.8,1.8-1.3H393.4z M392.7,38.5
			c0-0.2,0-0.3,0-0.5c0-0.8-0.4-1.4-1.4-1.4c-1,0-1.9,0.9-2.1,1.9H392.7z"/>
		<path class="st1" d="M396,37.9l0.4-2.1h4.4l-1,5.5h0.7l-0.5,2.8h-1l0.3-1.9h-4.6l-0.3,1.9h-1l0.5-2.8h0.7
			C395.5,40.2,395.8,39.1,396,37.9z M399.5,36.7h-2.3l-0.2,1.2c-0.2,1.4-0.6,2.4-1.2,3.5h2.9L399.5,36.7z"/>
		<path class="st1" d="M402.5,40.7L402.5,40.7l3.9-4.8h1.1l-1.1,6.5h-1l0.8-4.8h0l-3.9,4.8h-1.1l1.1-6.5h1.1L402.5,40.7z"/>
		<path class="st1" d="M409.7,38.4h2.9l0.4-2.6h1.1l-1.1,6.5h-1.1l0.5-3h-2.9l-0.5,3h-1.1l1.1-6.5h1.1L409.7,38.4z"/>
		<path class="st1" d="M420.1,40.2c-0.4,1-1.3,2.2-3.2,2.2c-1.5,0-2.2-0.9-2.3-2.3c-0.1-2.4,1.4-4.5,3.7-4.5c1.4,0,2.1,0.9,2.1,2.4
			c0,0.4,0,0.9-0.1,1.4h-4.6c0,0.3-0.1,0.5-0.1,0.7c0,0.9,0.5,1.4,1.5,1.4c1,0,1.7-0.8,1.8-1.3H420.1z M419.4,38.5
			c0-0.2,0-0.3,0-0.5c0-0.8-0.4-1.4-1.4-1.4c-1,0-1.9,0.9-2.1,1.9H419.4z"/>
		<path class="st1" d="M422.8,38.4h2.9l0.4-2.6h1.1l-1.1,6.5H425l0.5-3h-2.9l-0.5,3H421l1.1-6.5h1.1L422.8,38.4z"/>
		<path class="st1" d="M428.9,40.7L428.9,40.7l3.9-4.8h1.1l-1.1,6.5h-1.1l0.8-4.8h0l-3.9,4.8h-1.1l1.1-6.5h1.1L428.9,40.7z"/>
		<path class="st1" d="M440,40.2c-0.4,1-1.3,2.2-3.2,2.2c-1.5,0-2.2-0.9-2.3-2.3c-0.1-2.4,1.4-4.5,3.7-4.5c1.4,0,2.1,0.9,2.1,2.4
			c0,0.4,0,0.9-0.1,1.4h-4.6c0,0.3-0.1,0.5-0.1,0.7c0,0.9,0.5,1.4,1.5,1.4c1,0,1.7-0.8,1.8-1.3H440z M439.3,38.5c0-0.2,0-0.3,0-0.5
			c0-0.8-0.4-1.4-1.4-1.4c-1,0-1.9,0.9-2.1,1.9H439.3z"/>
	</g>
	<g>
		<path class="st0" d="M174.3,36.6c-7.2,0-11.1-4-8.7-8.9c2.4-4.9,10.2-8.9,17.4-8.9c7.2,0,11.1,4,8.7,8.9
			C189.2,32.7,181.5,36.6,174.3,36.6z M185.9,27.7c1.3-2.8-0.8-5-4.9-5c-4,0-8.4,2.2-9.7,5c-1.3,2.8,0.8,5,4.9,5
			C180.2,32.7,184.5,30.5,185.9,27.7z"/>
		<path class="st0" d="M172.3,40.8c-9.4,0-14.9-4.6-13.5-10.7h-12.3c-3.5,10.7,5.7,19.1,21.8,19.1c16.1,0,33.4-8.4,40.3-19.1h-12.3
			C191.6,36.1,181.6,40.8,172.3,40.8z"/>
		<path class="st1" d="M188.9,6.3c-16.1,0-33.4,8.4-40.5,19.3h12.3c4.8-6.3,14.8-10.9,24.1-10.9c9.4,0,14.9,4.6,13.5,10.9h12.3
			C214.3,14.7,205,6.3,188.9,6.3z"/>
	</g>
</g>
</svg>
